<?xml version="1.0" encoding="utf-8"?>
<!-- Generator: Adobe Illustrator 21.0.2, SVG Export Plug-In . SVG Version: 6.00 Build 0)  -->
<svg version="1.1" xmlns="http://www.w3.org/2000/svg" xmlns:xlink="http://www.w3.org/1999/xlink" x="0px" y="0px"
	 viewBox="0 0 1200 1200" style="enable-background:new 0 0 1200 1200;" xml:space="preserve">
<style type="text/css">
	.st0{fill:none;stroke:#161212;stroke-miterlimit:10;}
	.st1{fill:#FE7800;}
	.st2{fill:#303030;}
	.st3{fill:#FE7E00;}
	.st4{fill:#5A5A5A;}
	.st5{fill:#FFFFFF;}
	.st6{fill:#FDB87E;}
	.st7{fill:#E80B77;}
	.st8{fill:#FBC496;}
	.st9{fill:#FFC79A;}
	.st10{fill:url(#SVGID_1_);}
	.st11{fill:url(#SVGID_2_);}
	.st12{fill:#FF3C3F;}
	.st13{fill:#BF1569;}
	.st14{fill:#E71075;}
	.st15{fill:none;stroke:#6C2E20;stroke-width:3;stroke-miterlimit:10;}
	.st16{fill:url(#SVGID_3_);stroke:#6C2E20;stroke-width:3;stroke-miterlimit:10;}
	.st17{fill:url(#SVGID_4_);stroke:#6C2E20;stroke-width:3;stroke-miterlimit:10;}
	.st18{fill:none;stroke:#6C2E20;stroke-miterlimit:10;}
	.st19{fill:url(#SVGID_5_);stroke:#6C2E20;stroke-width:3;stroke-miterlimit:10;}
	.st20{fill:url(#SVGID_6_);stroke:#6C2E20;stroke-width:3;stroke-miterlimit:10;}
	.st21{fill:url(#SVGID_7_);stroke:#6C2E20;stroke-width:3;stroke-miterlimit:10;}
	.st22{fill:url(#SVGID_8_);stroke:#6C2E20;stroke-width:3;stroke-miterlimit:10;}
	.st23{fill:#FC7B01;}
	.st24{fill:none;stroke:#6C2E20;stroke-width:0.5;stroke-miterlimit:10;}
	.st25{fill:url(#SVGID_9_);stroke:#6C2E20;stroke-width:3;stroke-miterlimit:10;}
	.st26{fill:url(#SVGID_10_);stroke:#6C2E20;stroke-width:3;stroke-miterlimit:10;}
	.st27{fill:url(#SVGID_11_);stroke:#6C2E20;stroke-width:3;stroke-miterlimit:10;}
	.st28{fill:url(#SVGID_12_);stroke:#6C2E20;stroke-width:3;stroke-miterlimit:10;}
	.st29{fill:url(#SVGID_13_);stroke:#6C2E20;stroke-width:3;stroke-miterlimit:10;}
	.st30{fill:url(#SVGID_14_);stroke:#6C2E20;stroke-width:3;stroke-miterlimit:10;}
	.st31{fill:url(#SVGID_15_);stroke:#6C2E20;stroke-width:3;stroke-miterlimit:10;}
	.st32{fill:url(#SVGID_16_);stroke:#6C2E20;stroke-width:3;stroke-miterlimit:10;}
	.st33{fill:#9512DB;}
	.st34{fill:#E17C4E;}
	.st35{fill:#E5794B;}
	.st36{fill:none;stroke:#9D5830;stroke-width:5;stroke-miterlimit:10;}
	.st37{fill:none;stroke:#FEA579;stroke-width:4;stroke-miterlimit:10;}
	.st38{fill:#FEA579;}
	.st39{fill:#FCAA79;}
	.st40{fill:#E24419;}
	.st41{fill:none;stroke:#F9A67E;stroke-width:2;stroke-miterlimit:10;}
	.st42{fill:url(#SVGID_17_);stroke:#6C2E20;stroke-width:3;stroke-miterlimit:10;}
</style>
<g id="Слой_1">
	
		<image style="overflow:visible;" width="1366" height="768" xlink:href="ed_XWqlzUbc.jpg"  transform="matrix(1.2313 0 0 1.2313 -2730.2087 -63.5496)">
	</image>
	<path class="st0" d="M480,697.3"/>
	<path class="st1" d="M712.2,595.3c10,3.2,29.2,8.2,51.8,7.9c0,0,14.3,5.7,4,26.6c-13.5,27.5-42.1,17.7-42.1,17.7
		s-30.1-0.5-30.2-35.3c0-3.2,0.3-5.8,0.7-8C697.9,597.2,705.3,593.1,712.2,595.3z"/>
	<ellipse class="st2" cx="1025.3" cy="483.5" rx="15.1" ry="9.8"/>
	<path class="st3" d="M715.1,614.9c8.6,3.4,23.9,8.4,39,7.9c4.6-0.2,9,2.6,10.5,7c1.1,3.4,0.7,8-3.7,13.8
		c-10.7,14.2-33,32.2-52.8,2.6c0,0-8.8-12.4-4.5-25.9C705.1,615.5,710.4,613,715.1,614.9z"/>
</g>
<g id="Слой_8">
	</g>
<g id="Слой_6">
	<path class="st5" d="M913.2,594.6l-93.6,21.7l-48.4,69.5l-3.7,5.2c-49.7-2.1-106.1-38.3-121.8-48.9l0.1-1.4l2.2-47.6
		c0,0-28.7,2.7-42.5,11.6l-10.6-26.2c15.1-6.4,30.5-14.4,46-24.3c8.9-5.7,19.6-7.8,30.1-7.4l30.2,0.6c-12.6,47.1,85,87.1,96.6,13.1
		c38.4,5.3,90.8-4.9,102.2-7.6C914.9,549.3,913.2,594.6,913.2,594.6z"/>
	<path class="st6" d="M900.1,554.7c0,0,86.9-18.7,101.1-62.2c0,0-8.4,1.8-6.2-20l-18.2-6.7c0,0-7.1-8,4.4-11.1
		c0,0,11.1,6.2,23.1,4.4s36.4-24.6,51,8c14.6,32.6-28.6,31.3-28.6,31.3s-47.1,89.2-123,89.2L900.1,554.7z"/>
	<path class="st6" d="M580.5,617.6c-21.3,6.7-60.4,11.9-138.1,7.9c-4.3-0.2-10.5,1.9-12.5,3.3c-3,1.3-40.5,1.2-40.5,0.1
		c-0.6-0.4-3-4.9,1.7-6.5c4.8-1.8,21.2,13.2,0.1-21.5c-1.8-2.9-9.8-7.5-11.2-17c-0.4-2.4,4-1.2,4.3-2.6c0.7-2.8-2.9-3.4,7-4
		c3.8-0.2-3.9-6.2,9.5-6.7c2.6-0.1,3.3-3.2,4.5-3.5c2.7-0.8,3.7,0,5.3,4.1c2.2,4.4,13,25.7,16.2,27.5s64,15.4,143.7-10.8
		L580.5,617.6z"/>
	<path class="st7" d="M605.4,604.8c-0.4,0.2-0.7,0.4-1,0.6c-4.7,3.4-11.1,8.2-25,12.5l-10.2-29.7c8.4-2.7,16.9-5.9,25.5-9.6
		L605.4,604.8z"/>
	<path class="st7" d="M767.4,691.2l-20.6,29.5c-45.2,0.9-103.1-38-103.1-38l1.9-40.5C661.3,652.9,717.7,689,767.4,691.2z"/>
	<path class="st8" d="M784.6,558.1c-30.4,49.5-61.6,7.7-69.9-10.3l26.6,0.5l1-23.3l23.9,2l0.3,22.9
		C771.3,553.6,777.5,556.3,784.6,558.1z"/>
	<path class="st7" d="M797.6,560.6c-11.6,74-109.2,34-96.6-13.1l13.6,0.3c8.3,17.9,39.5,59.8,69.9,10.3
		C788.7,559.2,793.1,560,797.6,560.6z"/>
	<path class="st7" d="M919.4,593.8c-2.3,0.3-6.1,1.1-12.9,3.3l-6.4-43.9c7.6-2.6,9.7-1.7,16.5-4.5c1-0.4,2.2,0.3,2.3,1.5l3.3,40.1
		C922.4,592,921.1,593.6,919.4,593.8z"/>
	
		<ellipse transform="matrix(0.6025 -0.7982 0.7982 0.6025 30.9182 1010.7994)" class="st9" cx="1030.1" cy="474.4" rx="16.2" ry="24.3"/>
	<path class="st3" d="M707.2,598.3c7.8,3,38.8,14.5,51.8,15.6c1.6,0.1,3.2,0.8,4.4,1.9c4.2,3.9,10.1,14.7-11.5,36.8
		c-24.8,25.4-47.4,5-53-1c-0.9-0.9-1.5-2.1-1.9-3.3c-2.3-8.8-11.3-46.5,6-50.4C704.5,597.6,705.9,597.8,707.2,598.3z"/>
</g>
<g id="Слой_3">
	<linearGradient id="SVGID_1_" gradientUnits="userSpaceOnUse" x1="348.8985" y1="858.9369" x2="554.2722" y2="858.9369">
		<stop  offset="0" style="stop-color:#F8B573"/>
		<stop  offset="1" style="stop-color:#F08256"/>
	</linearGradient>
	<path class="st10" d="M484.7,820c0,0,7,35.1,69.6,34.7c0,0-181.3,79.7-205.4,22.6l17.7-25.3C366.6,852,458.2,852.7,484.7,820z"/>
	
		<linearGradient id="SVGID_2_" gradientUnits="userSpaceOnUse" x1="465.2672" y1="1049.1926" x2="655.765" y2="1049.1926" gradientTransform="matrix(0.7209 -0.693 0.693 0.7209 -569.7742 593.7275)">
		<stop  offset="0" style="stop-color:#F8B573"/>
		<stop  offset="1" style="stop-color:#F08256"/>
	</linearGradient>
	<path class="st11" d="M590.2,884.3c0,0,21.3,29.3,55.9,27.9c0,0-104.8,133.3-128.7,133.2l-25.3-18.6
		C492,1026.8,575.6,908.3,590.2,884.3z"/>
</g>
<g id="Слой_2">
	<path class="st12" d="M644.6,674.9c0,0,20.1,33.9,103.8,43.7c0,0,58.2,61.8,88.6,223.6c1.2,6.6-2.5,13.2-8.7,15.6l-0.3,0.1
		c-5.5,2-11.2-2.3-11.5-8.2c-0.6-10.4-6.1-31.4-45.7,2.2c0,0-9.8,6.2-24.8-1.8c-14.6-7.8-8.2-41.8-103.9-34.3
		c-5.4,0.4-10.9-0.3-16-2.2c-13.1-4.8-36.8-16.3-43.5-38.5c-1.9-6.3-6.6-11.4-12.6-13.9c-7.4-3.1-19.4-5.4-38.9-4.3
		c-45.8,2.7-58.1-62.1-58.1-62.1s13.7-31.6-43.5-38.3c-6.6-0.8-12.3-4.9-15.1-11c-2.4-5.5-3.9-12.5-0.7-19.5
		C418.4,716.2,523.5,675.5,644.6,674.9z"/>
</g>
<g id="Слой_4">
	<path class="st5" d="M366.6,852c0,0-62.5-73.2-81.5-116.7c0,0-14-0.9-15.8,8.9l80,132.9L366.6,852z"/>
	<path class="st5" d="M492,1026.8c0,0-62.5,70.4-105,94c0,0-13.2,30.7-3.1,31.7L522.6,1044L492,1026.8z"/>
</g>
<g id="Слой_5">
	<path class="st13" d="M284.5,729.6c0,0-44.8,20.4-47.9,28.4c-2.6,6.8,12.1,6.5,16.5,6.3c0.8,0,1.6-0.3,2.2-0.8l31.9-21.7
		c1.2-0.8,1.9-2.1,1.9-3.5C289.2,734.5,288.9,727.5,284.5,729.6z"/>
	<path class="st14" d="M395.8,1094.2c0,0-41.7,65.8-39.1,78c2,9.6,18.3-1.6,25.3-6.9c2-1.6,3.6-3.6,4.7-6l20.8-48.8
		c2.6-6,1-13.2-4.2-17.3C400.7,1091.4,397.9,1090.8,395.8,1094.2z"/>
</g>
<g id="Слой_7">
	<path class="st15" d="M332.2,268.4c-33.6,8.7-58.5-0.9-58.5-0.9"/>
	<linearGradient id="SVGID_3_" gradientUnits="userSpaceOnUse" x1="288.0016" y1="164.581" x2="402.9621" y2="279.5415">
		<stop  offset="0.198" style="stop-color:#782B07"/>
		<stop  offset="0.731" style="stop-color:#9D4D2D"/>
		<stop  offset="0.8217" style="stop-color:#994A29"/>
		<stop  offset="0.9042" style="stop-color:#8F401E"/>
		<stop  offset="0.9832" style="stop-color:#7D2F0C"/>
		<stop  offset="1" style="stop-color:#782B07"/>
	</linearGradient>
	<path class="st16" d="M302.6,150c-6.1,124,62.8,91.4,118.1,111.9L302.6,150z"/>
	<path class="st15" d="M623.1,49.3c-25.9-56.4-43,5.1-43.9,10.1c0,0-41.4-22-43.1,27.7"/>
	<path class="st9" d="M767.8,527.9c-0.3,0-0.7,0-1,0c-91.9-4.9-112.2-16.9-116.1-23.6c-1.2-2-3.8-2.8-5.9-1.7
		c-55.6,30-76-12.5-83.1-33.1c-2.3-6.8-1.3-14.4,3-20.2c9.7-13.1,27.5-26.1,56.5-12.8c5.7,2.6,12.3-1.4,12.7-7.7l1-16.1
		c0.1-2.4-0.7-4.8-2.3-6.6c-4-4.5-10.2-14.2,1.5-22.5c2.1-1.5,3.5-3.7,3.8-6.3l1.2-9.6c0.3-2-0.1-4-1.2-5.7
		c-2.4-3.9-5.7-12.3,2.2-21.6c1.4-1.7,2.1-3.9,2.1-6.1l0-20.7c0-2.5-1-4.8-2.7-6.5c-5.8-5.7-17-21.8,7.9-47.7c1.3-1.3,2.1-3,2.3-4.7
		l1-6.3c0.4-2.7-0.4-5.4-2.2-7.5c-3.9-4.4-8.3-12.8,10.9-16c1.2-0.2,2.4-0.7,3.4-1.4l10.1-6.7c3.5-2.3,4.9-6.7,3.6-10.6
		c-3.1-9.2-4.5-24.6,24.7-20c4.3,0.7,8.6-1.8,10-6c2.9-8.7,8.8-22.2,18.8-26.5c4.9-2.1,7.1-7.4,4.8-12.2l-6.3-13.3
		c-4.5-9.5,8.1-17.7,15-9.8l18.9,21.7c0,0,0,0,0,0c0,0,42.9-20.7,57.3-2.5c2,2.5,5,4,8.2,3.8c6.8-0.4,18.1,0.5,22.6,9.9
		c2.7,5.5,7.8,9.4,13.8,10.6c5.7,1.1,11.8,3.5,14.6,8.9c1.5,2.9,4.5,4.6,7.8,4.7c8.3,0.1,22.1,5.1,23.7,35.9c0.1,2,0.9,3.9,2.2,5.4
		l24.1,27.4c0,0,0,0,0,0v23.9c0,0.3,0,0.6,0.1,1l1.6,15.1c0.5,5.1,5.2,8.7,10.2,8l0.5-0.1c4.4-0.6,8.1,2.3,9.9,6.3
		c9.5,21,22.3,39.2,27.3,44.4c1.1,1.1,1.6,2.6,2.2,4C1058.3,487.9,780.7,527.1,767.8,527.9z"/>
	<linearGradient id="SVGID_4_" gradientUnits="userSpaceOnUse" x1="645.3315" y1="167.1521" x2="960.7821" y2="167.1521">
		<stop  offset="0.1371" style="stop-color:#782B07"/>
		<stop  offset="0.26" style="stop-color:#893A18"/>
		<stop  offset="0.4174" style="stop-color:#984828"/>
		<stop  offset="0.5431" style="stop-color:#9D4D2D"/>
		<stop  offset="0.6925" style="stop-color:#994929"/>
		<stop  offset="0.839" style="stop-color:#8E3F1D"/>
		<stop  offset="0.984" style="stop-color:#7B2D0A"/>
		<stop  offset="1" style="stop-color:#782B07"/>
	</linearGradient>
	<path class="st17" d="M960,256.7c-0.1,1.4-0.9,2.6-1.3,3.9c-2.6,8.5-3.1,16.8-2.3,24.7c0.5,4.6-2.9,8.6-7.5,9.3
		c-0.4,0.1-0.9,0.1-1.2,0.1c-4.4,0-8.2-3.3-8.7-7.8l-1.7-15.4c-0.1-0.3-0.1-0.6-0.1-1v-20.6c0-2.1-0.8-4.2-2.2-5.7l-22-25
		c-1.3-1.5-2-3.4-2.1-5.4c-1.8-31.1-15.8-35.8-24-35.8c-3.3-0.1-6.1-1.9-7.6-4.8c-3.7-6.9-12.9-8.9-19.3-9.4c-3.8-0.3-6.9-3-7.8-6.7
		c-3.4-12.9-17.2-13.7-24.6-13.1c-2.9,0.2-5.5-1.3-7.2-3.6c-11.1-14.6-40.1-4.9-52.1-0.1c-3.3,1.4-7,0.6-9.5-2l-2.3-2.3
		c-1.1-1.2-2.4-2-3.8-2.3c-29.6-33.3-79.5-64.2-107.4-80c11.4-1.5,28.5-2.6,51.8-1.2c0.6,0.1,1.1-0.5,1.7-0.8
		c46.4-20.9,71.1-8.9,78-4.4c1.5,1,3.5,1.4,5.3,1.3c35.3-2,53.3,10.9,60.1,17.5c2.1,2.1,5.2,3.1,8.1,2.5
		c44.3-9.6,54.1,20.3,56.2,32.5c0.5,2.9,2.6,5.4,5.3,6.5c32.5,12.8,27.6,55.9,28.3,55.1C937.2,171.6,965.9,133.3,960,256.7z"/>
	<path class="st18" d="M548.3,290.7"/>
	<path class="st15" d="M763.3,87.2c0,0,19.7-30.6,51.2,6.9"/>
	<path class="st15" d="M493.3,162.4c0,0-28.4-3.9-36.4,26.9"/>
	<path class="st15" d="M848.7,101.2c0,0,47.5-8.4,48.3,25.3c0,0,42.6-12,31.9,44.4c0,0,37.3,39.9,12.9,64.3c0,0,19.1,8.9,3.5,49.2"
		/>
	<path class="st15" d="M907.8,155.5l23.1,10.2L907.8,155.5z"/>
	<linearGradient id="SVGID_5_" gradientUnits="userSpaceOnUse" x1="421.1919" y1="190.0493" x2="478.9628" y2="247.8202">
		<stop  offset="0.198" style="stop-color:#782B07"/>
		<stop  offset="0.731" style="stop-color:#9D4D2D"/>
		<stop  offset="0.8217" style="stop-color:#994A29"/>
		<stop  offset="0.9042" style="stop-color:#8F401E"/>
		<stop  offset="0.9832" style="stop-color:#7D2F0C"/>
		<stop  offset="1" style="stop-color:#782B07"/>
	</linearGradient>
	<path class="st19" d="M472.6,197.5c-14.2-13.3-41.1-12.1-41.1-12.1s-13.1,28.4-29.2,25.5c-16-2.9,54.9,49.6,73,40.6
		C475.3,251.4,480.3,206.6,472.6,197.5z"/>
	<path class="st15" d="M233,87.1"/>
	<path class="st15" d="M333.1,131.8c-48.1-8.3-86.3-33.8-86.3-33.8"/>
	<path class="st15" d="M264.1,167.8c0,0,8-60.2,72.1-34.4"/>
	<linearGradient id="SVGID_6_" gradientUnits="userSpaceOnUse" x1="321.7033" y1="175.7177" x2="321.7033" y2="175.7177">
		<stop  offset="0.198" style="stop-color:#782B07"/>
		<stop  offset="0.731" style="stop-color:#9D4D2D"/>
		<stop  offset="0.8217" style="stop-color:#994A29"/>
		<stop  offset="0.9042" style="stop-color:#8F401E"/>
		<stop  offset="0.9832" style="stop-color:#7D2F0C"/>
		<stop  offset="1" style="stop-color:#782B07"/>
	</linearGradient>
	<path class="st20" d="M321.7,175.7"/>
	<path class="st15" d="M382.6,186.5c-45.6,1.5-65.2-23.8-65.2-23.8"/>
	<path class="st15" d="M347.7,192.5c0,0-41,0-49.8-43.3"/>
	<linearGradient id="SVGID_7_" gradientUnits="userSpaceOnUse" x1="321.5079" y1="131.6947" x2="410.1817" y2="220.3685">
		<stop  offset="0.198" style="stop-color:#782B07"/>
		<stop  offset="0.731" style="stop-color:#9D4D2D"/>
		<stop  offset="0.8217" style="stop-color:#994A29"/>
		<stop  offset="0.9042" style="stop-color:#8F401E"/>
		<stop  offset="0.9832" style="stop-color:#7D2F0C"/>
		<stop  offset="1" style="stop-color:#782B07"/>
	</linearGradient>
	<path class="st21" d="M300.4,156.4c6.8,27.5,29.9,38.6,55.1,42c61.9,38.9,80.6-7.3,80.6-7.3c-9.3-17.9-40.9-13.5-40.9-13.5
		C381,139.5,300.2,153,300.2,153L300.4,156.4z"/>
	<path class="st15" d="M395.2,177.5c-35.2,6.1-39.8,20.8-39.8,20.8s38.6-0.7,44.9-6.7"/>
	<path class="st15" d="M307.8,186.5c0,0,23.3,33.3,34.8,37.3"/>
	<path class="st15" d="M325.2,159c0,0,15.2,12.7,40.7,11.9"/>
	<linearGradient id="SVGID_8_" gradientUnits="userSpaceOnUse" x1="230.7301" y1="82.9432" x2="328.2506" y2="180.4637">
		<stop  offset="0.198" style="stop-color:#782B07"/>
		<stop  offset="0.731" style="stop-color:#9D4D2D"/>
		<stop  offset="0.8217" style="stop-color:#994A29"/>
		<stop  offset="0.9042" style="stop-color:#8F401E"/>
		<stop  offset="0.9832" style="stop-color:#7D2F0C"/>
		<stop  offset="1" style="stop-color:#782B07"/>
	</linearGradient>
	<path class="st22" d="M296.8,189.2c0,0-54.7,6.8-50.1-122.3c0,0,70.1,37.5,93.1,74.1S296.8,189.2,296.8,189.2z"/>
	<path class="st23" d="M301.6,63.9l-17.9,34.8c-2.7,5.3-6.8,9.7-11.8,12.8l-1.2,0.8c-3.3,2-7,3-10.9,2.7c-14.6-1.1-52-3.1-59.5,3.1
		c-3.7,3,31.8,38.1,43.1,55.2c2.2,3.3,7.2,3.1,10.3,0.6c5-4,11.8-13.5,17.7-35.7c1.1-4.1,3.7-7.7,7.4-10l8.7-5.4
		c2.4-1.5,5.3-2.1,8.1-1.7c18,2.7,85.9,12.1,74.5-3.2c-16.2-21.8-45.5-52-61.6-56.8C305.6,60.3,302.8,61.5,301.6,63.9z"/>
	<path class="st24" d="M104.6,214.8"/>
	
		<linearGradient id="SVGID_9_" gradientUnits="userSpaceOnUse" x1="375.7423" y1="140.1344" x2="469.3236" y2="233.7157" gradientTransform="matrix(0.9995 -3.057992e-02 3.057992e-02 0.9995 -13.1865 56.8292)">
		<stop  offset="0.198" style="stop-color:#782B07"/>
		<stop  offset="0.731" style="stop-color:#9D4D2D"/>
		<stop  offset="0.8217" style="stop-color:#994A29"/>
		<stop  offset="0.9042" style="stop-color:#8F401E"/>
		<stop  offset="0.9832" style="stop-color:#7D2F0C"/>
		<stop  offset="1" style="stop-color:#782B07"/>
	</linearGradient>
	<path class="st25" d="M473.3,249.5c0,0-52.8-13.3-66.2-35.1c-0.2-0.2-0.4-0.4-0.7-0.4c-4.1-0.4-36.5-3.7-50.8-15.5
		c-0.8-0.6-1.9,0.1-1.5,1c5.8,14,29.6,60.7,91.3,68.8c0,0,10.3,1.6,28.2-6.5C491.6,253.9,473.3,249.5,473.3,249.5z"/>
	<path class="st15" d="M354,198.3c0,0,44.2,44.3,64.1,49"/>
	<linearGradient id="SVGID_10_" gradientUnits="userSpaceOnUse" x1="366.5562" y1="329.0636" x2="475.3336" y2="329.0636">
		<stop  offset="0.198" style="stop-color:#782B07"/>
		<stop  offset="0.731" style="stop-color:#9D4D2D"/>
		<stop  offset="0.8217" style="stop-color:#994A29"/>
		<stop  offset="0.9042" style="stop-color:#8F401E"/>
		<stop  offset="0.9832" style="stop-color:#7D2F0C"/>
		<stop  offset="1" style="stop-color:#782B07"/>
	</linearGradient>
	<path class="st26" d="M475.3,350.3c0,0-72,19.5-108.8-24.3c0,0,16.7-3.1,33-8.3c11.6-3.7,23-8.6,27.8-14.2c0,0,11.5,15.3,48,10.7
		V350.3z"/>
	<path class="st15" d="M448.4,334.8c0,0-55.6-4.4-54.2-19.3"/>
	<linearGradient id="SVGID_11_" gradientUnits="userSpaceOnUse" x1="427.8817" y1="294.7357" x2="476.9065" y2="294.7357">
		<stop  offset="0.198" style="stop-color:#782B07"/>
		<stop  offset="0.731" style="stop-color:#9D4D2D"/>
		<stop  offset="0.8217" style="stop-color:#994A29"/>
		<stop  offset="0.9042" style="stop-color:#8F401E"/>
		<stop  offset="0.9832" style="stop-color:#7D2F0C"/>
		<stop  offset="1" style="stop-color:#782B07"/>
	</linearGradient>
	<path class="st27" d="M427.9,304.7c0,0,12.5-39.7,45.7-32.7l3.3,44.2C476.9,316.2,438.9,325.6,427.9,304.7z"/>
	<linearGradient id="SVGID_12_" gradientUnits="userSpaceOnUse" x1="241.1047" y1="318.3098" x2="387.7626" y2="318.3098">
		<stop  offset="0.198" style="stop-color:#782B07"/>
		<stop  offset="0.731" style="stop-color:#9D4D2D"/>
		<stop  offset="0.8217" style="stop-color:#994A29"/>
		<stop  offset="0.9042" style="stop-color:#8F401E"/>
		<stop  offset="0.9832" style="stop-color:#7D2F0C"/>
		<stop  offset="1" style="stop-color:#782B07"/>
	</linearGradient>
	<path class="st28" d="M387.8,338.6c-80.9,44.3-146.7-52.2-146.7-52.2s10.4,4,25.4,6.8c14.2,2.6,32.5,4,49.9-0.2
		c0.8-0.2,1.6-0.4,2.3-0.6"/>
	<path class="st15" d="M340,335.5c0,0-57-20.9-68.6-39.3"/>
	<linearGradient id="SVGID_13_" gradientUnits="userSpaceOnUse" x1="195.2754" y1="273.4705" x2="364.2151" y2="273.4705">
		<stop  offset="0.198" style="stop-color:#782B07"/>
		<stop  offset="0.731" style="stop-color:#9D4D2D"/>
		<stop  offset="0.8217" style="stop-color:#994A29"/>
		<stop  offset="0.9042" style="stop-color:#8F401E"/>
		<stop  offset="0.9832" style="stop-color:#7D2F0C"/>
		<stop  offset="1" style="stop-color:#782B07"/>
	</linearGradient>
	<path class="st29" d="M195.3,256.4c0,0,79.4,66.5,135.7,40.3s24-24.7,24-24.7s-25.4-7.2-47.1-5.9c-7.2,0.5-14.4-2.7-17.7-9.1
		c-4.2-8-14.8-16.2-41.4-11.1c-3.1,0.6-6.3,0.4-9.3-0.3C230.4,243.6,210,241.3,195.3,256.4z"/>
	<path class="st15" d="M195.3,256.4c0,0,54.6,23,102.9,11.1"/>
	<linearGradient id="SVGID_14_" gradientUnits="userSpaceOnUse" x1="191.6578" y1="297.4975" x2="305.6964" y2="297.4975">
		<stop  offset="0.198" style="stop-color:#782B07"/>
		<stop  offset="0.731" style="stop-color:#9D4D2D"/>
		<stop  offset="0.8217" style="stop-color:#994A29"/>
		<stop  offset="0.9042" style="stop-color:#8F401E"/>
		<stop  offset="0.9832" style="stop-color:#7D2F0C"/>
		<stop  offset="1" style="stop-color:#782B07"/>
	</linearGradient>
	<path class="st30" d="M191.7,254c0,0,20.1,102.8,114,86.2C305.7,340.2,203.2,242,191.7,254z"/>
	<linearGradient id="SVGID_15_" gradientUnits="userSpaceOnUse" x1="132.2696" y1="222.9077" x2="233.3809" y2="222.9077">
		<stop  offset="0.198" style="stop-color:#782B07"/>
		<stop  offset="0.731" style="stop-color:#9D4D2D"/>
		<stop  offset="0.8217" style="stop-color:#994A29"/>
		<stop  offset="0.9042" style="stop-color:#8F401E"/>
		<stop  offset="0.9832" style="stop-color:#7D2F0C"/>
		<stop  offset="1" style="stop-color:#782B07"/>
	</linearGradient>
	<path class="st31" d="M132.3,168.1c0,0,4.4,108.4,50.1,111c29.6,1.7,43.4-17,49.4-30.4c3.2-7.1,1.4-15.5-4.6-20.6
		C204,208.2,142.3,157.2,132.3,168.1z"/>
	<linearGradient id="SVGID_16_" gradientUnits="userSpaceOnUse" x1="322.3809" y1="297.4975" x2="445.7843" y2="297.4975">
		<stop  offset="0.198" style="stop-color:#782B07"/>
		<stop  offset="0.731" style="stop-color:#9D4D2D"/>
		<stop  offset="0.8217" style="stop-color:#994A29"/>
		<stop  offset="0.9042" style="stop-color:#8F401E"/>
		<stop  offset="0.9832" style="stop-color:#7D2F0C"/>
		<stop  offset="1" style="stop-color:#782B07"/>
	</linearGradient>
	<path class="st32" d="M445,283.5C376.4,245,322.4,300,322.4,300s21,52.7,109.5,5.5C450.6,295.6,445,283.5,445,283.5z"/>
	<path class="st15" d="M332.5,309.5c0,0,39.1-1,48-12"/>
	<path class="st15" d="M213.9,281.5c0,0,16.6,32.2,32,36.8"/>
	<path class="st33" d="M86.7,230.1"/>
	<path class="st23" d="M188.7,158.7c5.7-1,39.6,10.3,67.4,42.1c0,0,1.2,0.7-1.1,5.7c-2.3,5-48.2,7.2-65.3,8.6
		c-4.1,0.3-8,2.1-11.1,4.9l-5.3,5c-2.5,2.4-4.3,5.4-5.2,8.8l-10,38.1c0,0-3,7.8-11.5,0.4c-8.5-7.4-53-39.7-48-47.5
		c5-7.7,37.1-9.4,53-9.7c5.3-0.1,10.2-2.4,13.7-6.5l3.1-3.6c1.9-2.3,3.3-5,3.9-7.9C174.9,185.7,183.1,159.7,188.7,158.7z"/>
	<path class="st34" d="M700.4,303c9.5-8.9,33.1-27.2,61.2-20.3c2.8,0.7,4,4,2.3,6.3c-7.6,9.7-28.4,30.7-61.9,20.7
		C699.1,308.8,698.2,305.1,700.4,303z"/>
	<path class="st35" d="M884.3,247.1c10.3-6.8,30.5-16,49.7-0.2c1.7,1.4,1.6,4-0.1,5.2c-6.9,5-24.8,14.6-48.5,4.4
		C881.3,254.9,880.7,249.5,884.3,247.1z"/>
	<path class="st36" d="M891.3,323.4c0,0,20.8-45.6,49.6-3.5"/>
	<path class="st36" d="M717,392c0,0,4.9-60.4,50.1-23.4"/>
	<path class="st37" d="M828.3,312.4c0,0-8.5,43.4,28.7,22c3-1.7,6.6-2.3,9.9-1.1c4.6,1.6,8.9,6.7,3.9,21.3c0,0-2.6,11.4-16.7,9.2"/>
	
		<ellipse transform="matrix(0.9741 -0.2262 0.2262 0.9741 -73.4163 183.9487)" class="st38" cx="766.1" cy="412.4" rx="37.9" ry="24.7"/>
	
		<ellipse transform="matrix(0.9911 -0.1328 0.1328 0.9911 -39.1138 127.6784)" class="st39" cx="937.8" cy="357.1" rx="37.9" ry="24.7"/>
	<path class="st40" d="M822.5,401.9c0,0,40.6,1.3,58.9-10c0,0,7,62.9-23,61.2C858.4,453.2,820.2,449.2,822.5,401.9z"/>
	<path class="st5" d="M832.4,401.9c0,0,1.3,12.8,20.5,10.1c19.2-2.7,18.6-15.7,18.6-15.7C861.2,400.4,832.4,401.9,832.4,401.9z"/>
	<path class="st5" d="M917.7,511.4"/>
	<path class="st41" d="M594.9,449.8c0,0-10.1,35,23.2,16.8c0,0,9.8,2.7,6.7,16"/>
	<linearGradient id="SVGID_17_" gradientUnits="userSpaceOnUse" x1="477.5444" y1="416.1587" x2="676.9417" y2="70.7926">
		<stop  offset="0.198" style="stop-color:#782B07"/>
		<stop  offset="0.731" style="stop-color:#9D4D2D"/>
		<stop  offset="0.8217" style="stop-color:#994A29"/>
		<stop  offset="0.9042" style="stop-color:#8F401E"/>
		<stop  offset="0.9832" style="stop-color:#7D2F0C"/>
		<stop  offset="1" style="stop-color:#782B07"/>
	</linearGradient>
	<path class="st42" d="M737.5,121c4.1,4,6.3,10.2,4.2,15.6c-0.3,0.8-0.5,1.8-0.6,3l-0.3,5.9c-0.2,4-3.3,7-7.2,7.7
		c-12.1,2.4-19,18.2-22.1,27.7c-1.4,4.2-9.8,5.9-9.8,5.9s-27.9,11.2-24.7,20.4c1.3,3.7-0.1,7.9-3.5,10.1l-10.5,6.9
		c-1,0.6-2.2,1.1-3.5,1.3c-19.4,3.2-14.6,11.8-10.6,16.1c1.8,2,2.5,4.6,2.1,7.2l-1.1,6.5c-0.3,1.8-1.1,3.4-2.4,4.7
		c-24.9,25.9-13.7,42-7.8,47.7c1.7,1.7,2.7,3.9,2.7,6.3l0,21.2c0,2-0.6,4.1-2,5.6c-8.2,9.5-4.7,18.1-2.3,22c1.1,1.7,1.4,3.7,1.2,5.6
		l-1.3,9.7c-0.3,2.4-1.7,4.6-3.7,6.1c-11.9,8.3-5.7,18.1-1.6,22.6c1.6,1.8,2.4,4.1,2.3,6.4l-1,16.7c-0.4,6.2-6.9,9.9-12.5,7.3
		c-32.1-14.9-50.5,2.7-59.4,16.8c-2.3,3.6-6.9,5-10.8,3.3c-62.1-25.5-74.5-80.5-76.6-93.9c-0.1-0.8-3.4-14.9-2.6-29.7
		c1.2-23.9-10.4-55-3.5-72.8c4.9-12.5,5.5-23.6,0-32.5c-9-14.6,9.8-48.5,10.9-49.9c17-20.5,3.5-43.3,3.5-43.3
		c-2.9-20.7,12.5-35.2,25.8-43.7c9.2-5.9,19.6-9.3,30.4-10.3c22.2-2.1,29-17.4,30.2-20.9c0.2-0.4,0.4-0.8,0.6-1.2
		c22.5-35.9,44.1-18.7,52.8-8.9c2.7,2.9,6.7,4.3,10.5,3.4c2.8-0.6,9,0.6,13.9,0C671.4,67.3,708.5,92.6,737.5,121z"/>
	<path class="st15" d="M593.1,107.4c0,0-29.7-8.9-24,24c0,0-52,0-25.5,44.4"/>
	<path class="st15" d="M536.1,183.3c0,0,21.9,37.3,0,37.3c0,0-40.5-10.1-27.3,19c1.4,3.1,4.3,5.2,7.7,5.8c10,1.8,34,8,31.7,41.6
		c0,0-16.3,22.8,3,37.4"/>
	<path class="st15" d="M559.4,245.1l-19.1,15.6c0,0-31.5,3.5-15.3,16.1"/>
	<path class="st15" d="M700.4,114.9c0,0-40.4-13.1-34.6,26.1c0,0-42.6,1.8-14.7,55c1.4,2.7,0.7,6.1-1.7,7.9
		c-4.2,3.2-10.2,8.9-11.9,16.9c-0.7,3.2-3.3,5.5-6.5,6.3c-16.1,3.8-56.9,17.2-28.8,50.9c1.6,1.9,0.5,4.8-2,5
		c-14.3,1.3-45.3,7.7-4.2,39.1c1.6,1.2,1.9,3.4,0.7,5c-7.2,9.5-28.6,40.5-5.4,44.2"/>
	<path class="st15" d="M674.3,152.3c0,0-62.9-53.1-56.7,18.6c0,0.6,0.1,1.1,0.2,1.7c0,0-70.9-20.3-39.6,51.2"/>
	<path class="st18" d="M565.6,424.1c0,0-31.9-25.3,0-46.1"/>
	<path class="st15" d="M528.7,403.7c0,0-60.4-49.9-2-64.7c0.7-0.2,1.3-0.3,2-0.5c0,0-32.1-20-19.9-45.2"/>
</g>
</svg>
