<?xml version="1.0" encoding="utf-8"?>
<!-- Generator: Adobe Illustrator 21.0.2, SVG Export Plug-In . SVG Version: 6.00 Build 0)  -->
<svg version="1.1" xmlns="http://www.w3.org/2000/svg" xmlns:xlink="http://www.w3.org/1999/xlink" x="0px" y="0px"
	 viewBox="0 0 1200 1200" style="enable-background:new 0 0 1200 1200;" xml:space="preserve">
<style type="text/css">
	.st0{fill:#F6A86A;}
	.st1{fill:#4D3458;}
	.st2{fill:none;stroke:#EFEFEF;stroke-width:4;stroke-miterlimit:10;}
	.st3{fill:none;stroke:#FFFFFF;stroke-width:2;stroke-miterlimit:10;}
	.st4{fill:#F8BA7F;}
	.st5{fill:#E55C26;}
	.st6{fill:#F0E2E8;}
	.st7{fill:url(#SVGID_1_);}
	.st8{fill:#ED7D50;}
	.st9{fill:#F2917C;}
	.st10{fill:none;stroke:#9B6251;stroke-width:3;stroke-miterlimit:10;}
	.st11{fill:#EC7E4B;}
	.st12{fill:#CDCFC9;}
	.st13{fill:#ECDAC9;}
	.st14{fill:#0C717A;}
	.st15{fill:#097181;}
	.st16{fill:#DFE7E8;}
	.st17{fill:none;stroke:#545656;stroke-width:3;stroke-miterlimit:10;}
	.st18{fill:none;stroke:#07565E;stroke-width:3;stroke-miterlimit:10;}
	.st19{fill:#07565E;}
	.st20{fill:none;stroke:#010202;stroke-miterlimit:10;}
	.st21{fill:#EEDAC8;}
	.st22{fill:#F7B881;}
	.st23{fill:#F49E6D;}
	.st24{fill:url(#SVGID_2_);}
	.st25{fill:none;stroke:#804220;stroke-width:3;stroke-miterlimit:10;}
	.st26{fill:#ED6B2E;}
	.st27{fill:#E2411E;}
	.st28{fill:#FFFFFF;}
	.st29{fill:#EF7C54;}
	.st30{fill:url(#SVGID_3_);}
	.st31{fill:#F9FCFF;}
	.st32{fill:url(#SVGID_4_);}
	.st33{fill:#EE8453;}
	.st34{fill:none;stroke:#CDCFC9;stroke-width:0.25;stroke-miterlimit:10;}
	.st35{fill:#E3DBC7;}
	.st36{fill:#ED687A;}
</style>
<g id="Слой_3">
	
		<image style="overflow:visible;" width="1366" height="768" xlink:href="MfjnnbcBKmc.jpg"  transform="matrix(1 0 0 1 -1745.3208 106)">
	</image>
</g>
<g id="Слой_1">
	<path class="st0" d="M710.9,1050.7l-42.3,14.8v21.1C668.6,1086.6,714.7,1085.2,710.9,1050.7z"/>
	<path class="st0" d="M876,834.4l7.5,45.7l22,4.6C905.5,884.7,912.8,837.9,876,834.4z"/>
	<path class="st1" d="M569.9,812.1c0,0,0,87.5,16.1,148.1c5.3,19.8,15,38.2,28.2,53.9l43.6,51.8c3.6,4.3,9.6,5.8,14.8,3.8l48.4-18.7
		c2.7-1,3.7-4.3,2.1-6.7l-49.6-72c-14.5-21-24.3-44.9-28.4-70.1c-3.2-19.2-5-42.3-1.6-64.7c0,0,9.3-20.4,35.9,4.3
		c19.3,17.9,72.7,43.5,91.3,52.1c4.2,1.9,8.7,3,13.3,3.1l97.6,2.3c0,0,30.1-16.9,6.8-55.7c-3.6-6-10.1-9.7-17.1-9.9
		c-31.3-0.5-91.7,6.2-134.5-58.8c-0.6-0.8-0.7-4-0.5-3c0.1,1,0.1,1,0.1,1S681.2,822.6,569.9,812.1z"/>
	<path class="st2" d="M657.8,1065.9l46.9-17.5l-63-95.1c-3.2-4.9-4.8-10.7-4.5-16.5c3.7-74.7-2.8-100.4-6.4-108.6
		c-2-4.7-3.6-9.6-4.8-14.6l-0.2-1l-55.8-0.4c0,0,87.4,14,166.9-37.2h2.8"/>
	<path class="st2" d="M877.9,895.6c-0.6-8.7-4.9-51.3-4.9-51.3c-87.2,11.7-152.6-59.7-152.6-59.7s15.8,20.1,29.5,7.4"/>
	<line class="st2" x1="790.4" y1="832.3" x2="768.4" y2="847.3"/>
	<path class="st2" d="M588.5,813.7c0,0-2.7,27.7-19.2,26.5"/>
	<path class="st3" d="M616.5,1264.1"/>
	<path class="st4" d="M272.8,611l-30.1-11.3c-3.3-1.2-6.8-2-10.3-2.3c-10.3-0.9-33.5-5.2-30-24.7c2.9-16.4,20.1-30.1,31.6-37.6
		c6.9-4.5,16-4.3,22.4,0.8c8,6.3,16.9,17.7,16.9,36.8c0,4.6,2.1,8.9,5.8,11.6l10.7,7.7"/>
	<path class="st5" d="M526.3,681c0,0,47-21,60.4-28.5s17.3,46.9,17.3,46.9s-28.8,49-71.4,18.7C489.9,687.7,526.3,681,526.3,681z"/>
</g>
<g id="Слой_4">
	<path class="st6" d="M521.2,579.6c0,0-23.4,11.9-23.5,15.8c-0.1,3.9-3.8,38.8,25.5,45.7c0,0,14.5,135.4,26.4,161.4
		c1.1,2.4,2.1,3.8,3.1,4.2c12.2,4.4,145,13,189.1-38.7l23.6-29.4l-39.7-56.2L679.5,775c-4.4,5.2-9.5,8.3-14.2,3.4
		c-23.4-24.7-77.4-93.7-97.4-143.5c0,0,38-45.2,21.9-69.8h-25.2C564.7,565,546.2,651.5,521.2,579.6z"/>
	<path class="st5" d="M521.2,682.6l65.5-30.1l24.7,33.4c0,0-21.5,62.5-78.8,32.1S521.2,682.6,521.2,682.6z"/>
	<linearGradient id="SVGID_1_" gradientUnits="userSpaceOnUse" x1="536.6222" y1="565.1023" x2="536.6222" y2="216.9386">
		<stop  offset="0" style="stop-color:#F39462"/>
		<stop  offset="0.1793" style="stop-color:#F49B69"/>
		<stop  offset="0.6232" style="stop-color:#F5A775"/>
		<stop  offset="1" style="stop-color:#F6AB7A"/>
	</linearGradient>
	<path class="st7" d="M529.2,564.2c0,0-248.2,20.5-230.4-136.4c0,0-2.5-2.5,24.4-62.6c0.8-1.7,1.5-3.4,2.3-5.2c0,0,0,0,0,0
		c0,0,0-137.8,19-139.2c2.5-0.2,4.9-0.6,7.1-1.8c4.7-2.8,13.2-4.8,20.7,8c3.9,6.7,11.4,10.5,19,9.5c18.6-2.3,49.9-3.9,57.3,10.2
		c0,0,0,0,0,0c0,0,58.8-17.8,66,3.6c0,0,0,0,0,0c0,0,140-44.6,148-28.5c8,16,25.9,192.6,25.9,192.6c0,0,0,0,0,0l40.9-9.7
		c15.4-3.7,31.9,2.9,39.6,16.8c8,14.3,15.9,41.9-23.9,68.7c0,0,0,0,0,0c0,0-77.1-4.5-94,33.9c0,0,0,0,0,0
		C651,524.1,593.7,559.8,529.2,564.2z"/>
	<path class="st8" d="M338.7,248.5c10-3.2,27.2-5.5,43.9,7.3c1,0.8,2.3,1.1,3.5,0.9c8-1.4,38.2-6.3,48,1.8c3.3,2.7,7.1,4.7,11.4,5.3
		c7.2,0.9,17.7,1.9,26.1,1.3c5.5-0.4,10.4,3,12.3,8.1c3.4,8.8,13.2,20,41.4,21.3c21.6,1,43-4.5,61.8-15c26.6-14.9,69.6-39.5,69-41.9
		c-0.8-3.3-58.7,132.4,0,135.7c4.7,0.3,8.9,3.3,10.3,7.8c6,18.9,20.9,71,42.3,51.4c24.8-22.7-18.1-187-24.9-212.2
		c-0.5-1.9-2.2-3.2-4.2-3.2l-334.3-1.2c-1.9,0-3.6,1.2-4.2,3l-8,24.2C332,246.4,335.3,249.6,338.7,248.5z"/>
	<ellipse class="st9" cx="544" cy="428.2" rx="43.1" ry="15.2"/>
	<path class="st10" d="M500.8,351.8c0,0,41-58.8,88.6,0.2"/>
	<path class="st10" d="M348.9,332.4c0,0,33.6-59.4,70.7-1.2"/>
	<path class="st11" d="M298.6,448.2c0,0-62.7-111.3,25-91.5"/>
	<path class="st12" d="M570.8,809.3c0.1-0.3-0.2-0.7-0.5-0.8c-27.9-6.5-56,2.2-61.8,4.2c-0.5,0.2-0.6,0.8-0.3,1.1
		c15.4,16,51.8,22.9,60.7,24.4c0.6,0.1,0.9-0.5,0.7-1C567.3,831.9,570.2,812.9,570.8,809.3z M528.7,809c3.6-1.8,7.1-1.8,10.7-1.8
		h-1.8h1.8C535.8,807.2,532.3,807.2,528.7,809z"/>
	<path class="st13" d="M467.2,682.3c0,0-134.6,21.4-177.4-41l36.6-49.4c0,0,116.5,27.8,166.1,1.2
		C492.4,593.1,474.3,687.7,467.2,682.3z"/>
	<path class="st5" d="M572.5,872c0,0-70.8,0.6-80.1-76.7c0,0,19.8,36.2,76.8,43.2L572.5,872z"/>
	<path class="st14" d="M529.2,807.9c6.7-1.2,14.7-1.8,23.3-1.1c0,0-26-90.7-27.1-163.9c0-2.8-1.8-5.4-4.5-6.3
		c-8-2.8-24.6-5.2-23.1-44.4c0,0-25-13.4-22.6,129.3c0,0,3.4,52.8,17.5,73.7c12.2,18.1,16.5,18.4,16.5,18.4S517.2,810,529.2,807.9"
		/>
	<path class="st15" d="M588.9,565c0,0,8.8,25.2-19.1,53.2c-3.5,3.5-3.9,14.3-1.7,18.8c13.3,26.8,58.1,109.3,96.4,142.8
		c3.5,3,8.6,3,12.1,0.1c14.4-12.1,51.5-43.8,65.9-61.4c4.1-5.1,4.4-12.4,0.7-17.8l-52.7-77.9c-2.2-3.2-6.1-4.5-9.6-3.2
		c-17.6,6.4-68.5,21.9-66.3-13.4l-0.9-44L588.9,565z"/>
	<polygon class="st16" points="664.3,666.4 718.2,717.6 703.5,732.3 648,681 	"/>
	<line class="st17" x1="662.1" y1="678.5" x2="704.3" y2="718"/>
	<path class="st18" d="M672.4,628.4l64.5,91.8L672.4,628.4z"/>
	<path class="st18" d="M513.1,630.2c0,1.7-1.1,25.3-0.2,57.1c1.1,40,5.6,98.8,20.4,122.3"/>
	<path class="st18" d="M530.4,690.4l-17.6-0.9L530.4,690.4z"/>
	<path class="st18" d="M538.4,743.1h-22.4H538.4z"/>
	<polyline class="st18" points="551.4,795.3 526.9,795.3 551.4,795.3 	"/>
	<path class="st16" d="M476.2,722.8l19.1,4c0,0-1.2,72.1-2.8,69.7C487.7,788.3,473.1,747,476.2,722.8z"/>
	<circle class="st19" cx="596.5" cy="660.7" r="2"/>
	<circle class="st19" cx="628.6" cy="709.4" r="2"/>
	<circle class="st19" cx="666.5" cy="762.9" r="2"/>
	<path class="st20" d="M545,648.5"/>
	<polygon class="st14" points="289.8,641.3 272.8,616.4 294.2,586.9 326.3,592 	"/>
	<path class="st21" d="M613.6,562c0,0,125.5-66.9,245.6,25l-34.5,36c0,0-76-33.3-194.1,10.7C630.6,633.6,603.4,639,613.6,562z"/>
	<path class="st15" d="M859.2,586.9c0,0,20.4,0.9,22.4,20.5l-31,27.7c0,0-23.2-0.3-25.9-12.2L859.2,586.9z"/>
	<path class="st22" d="M877.6,611c0,0,78.1,6.7,78.2,9.8s-6.2,4.8-6.2,4.8s-7.4-0.3-7.1,1.3c0.2,0.8,7,1.5,6.8,3.4
		c-0.2,1.8-2.5,4.3-3.8,4.8c-1.3,0.5-35.3-1.4-35.3-1.4c-0.8,0-1.1,0.9-0.5,1.4c6.2,4.4,23.6,17.2,18.8,20.5
		c-4.5,3.1-30.1-3.9-41.5-7.3c-3.2-0.9-6.6,0.6-8,3.6l-8.7,18.3c-1.4,3-4.8,4.6-7.9,3.6c-6.3-1.9-15.1-9.7-11.9-38.8"/>
	<path class="st23" d="M529.9,567.3c0,0,2.8,17-8.7,12.2c0,0,21.2,66.5,41.3-5.7V562L529.9,567.3z"/>
	<radialGradient id="SVGID_2_" cx="536.6222" cy="249.9275" r="217.9651" gradientUnits="userSpaceOnUse">
		<stop  offset="0" style="stop-color:#9F5029"/>
		<stop  offset="1" style="stop-color:#732E10"/>
	</radialGradient>
	<path class="st24" d="M326.2,364c0.2,0,0.3-0.2,0.3-0.4c-0.2-7.5-3.9-139.2,26-140.7c-1.9-1,11.8-5,21.3,10.3
		c3.3,5.4,9.5,8.4,15.8,7.6c16.8-2.3,67.8,17.2,74.9,17.9c12.8,1.3,30.8,0.5,42.3-10.7c0.3-0.3,0.8,0,0.7,0.4
		c-2.6,8.3-9.9,41.5,47.2,29c0,0,80.3-19,107.5-50.2c0.3-0.3,0.9-0.1,0.7,0.4c-4.8,17.4-39.1,148.5,14.3,144.4
		c0.3,0,0.5,0.2,0.5,0.4c-0.5,7.9-6.1,111.8,57.5,35.6c0.1-0.1,0.2-0.2,0.4-0.2l14,1.5c0.2,0,0.3-0.1,0.4-0.2
		c3.6-6.5,77-142.8-9.8-200.3c-0.1-0.1-0.1-0.1-0.2-0.2c-0.5-1.9-5.2-24.2,35.5-53.8c0.3-0.2,0.2-0.6-0.1-0.7
		c-3.6-1.5-21.2-7.2-40.1,17.2c-0.2,0.3-0.7,0.2-0.8-0.2c-0.4-7.7-3-52-7.1-47.9c-4.5,4.5-6.2,46.4-6.2,46.4
		c31.4-16.9-180.3-251.3-425,38.8c-4.9,5.8-7.1,13.7-5.1,21.1c1.1,4.1,3.3,7.7,7.6,8.4c4.9,0.9,8.3,5.4,8,10.3
		C304.4,281,297.1,371.2,326.2,364z"/>
	<path class="st25" d="M505.5,175.3c0,0,44.6,33.9-56.2,74.6"/>
	<path class="st25" d="M603.2,181.7c0,0-67.3,31.7-91.4,70.4"/>
	<path class="st25" d="M420.8,187.6c0,0-75.8,14.3-94.5,42.8"/>
	<path class="st26" d="M346.8,297.2c0,0,39.2-36.9,64.8,0C411.6,297.2,335.9,305.2,346.8,297.2z"/>
	<path class="st26" d="M521.2,307.9c0,0,40.2-41.6,74.7,17.8c0,0-12.2-5.4-26.7-7.1C545.9,315.8,516.6,315.2,521.2,307.9z"/>
	<path class="st27" d="M414.6,462.6c0,0,70,46.2,117.9-14.4c0,0,24.8,40.7-50.1,61.2C482.3,509.4,409.8,508.9,414.6,462.6z"/>
	<path class="st28" d="M433.3,471.8c0,0,55.5,13.9,75.8-4.1l0,0c0,6.1-3.3,11.7-8.7,14.7C484.8,491.2,451.7,498.7,433.3,471.8z"/>
	<path class="st29" d="M463.3,341.6c0,0,0.3,60.5-42.3,58c-7.6-0.4-13.8,6-12.8,13.5c0.8,6.4,4.7,13.7,16,19.6
		c5.9,3.1,12.8,3.9,19.3,2.1C461,430,492.1,411.7,463.3,341.6z"/>
	<ellipse class="st28" cx="384.3" cy="357.8" rx="32.8" ry="45.7"/>
	<linearGradient id="SVGID_3_" gradientUnits="userSpaceOnUse" x1="392.9911" y1="397.7743" x2="392.9911" y2="322.5388">
		<stop  offset="0" style="stop-color:#0C597C"/>
		<stop  offset="0.353" style="stop-color:#0E6793"/>
		<stop  offset="0.7031" style="stop-color:#1171A3"/>
		<stop  offset="1" style="stop-color:#1275A9"/>
	</linearGradient>
	<path class="st30" d="M417.3,363.6c-2.9,20.7-16.1,35.9-29.5,34.1s-21.9-20.2-19-40.9c2.9-20.7,16.1-35.9,29.5-34.1
		C411.7,324.6,420.2,342.9,417.3,363.6z"/>
	<circle class="st31" cx="377.5" cy="344.1" r="6.8"/>
	<path class="st28" d="M580.8,387.4c-6.4,23.9-28.9,38.7-50.4,33c-10.7-2.8-22.3-5.4-27.3-15.1c-4.9-9.7-3.2-26.5-0.1-38.5
		c6.4-23.9,28.9-38.7,50.4-33S587.2,363.4,580.8,387.4z"/>
	<linearGradient id="SVGID_4_" gradientUnits="userSpaceOnUse" x1="552.3709" y1="420.5775" x2="552.3709" y2="341.8051">
		<stop  offset="0" style="stop-color:#0C597C"/>
		<stop  offset="0.353" style="stop-color:#0E6793"/>
		<stop  offset="0.7031" style="stop-color:#1171A3"/>
		<stop  offset="1" style="stop-color:#1275A9"/>
	</linearGradient>
	<path class="st32" d="M580.1,389.8c-6.6,21.2-24.4,34.6-39.7,29.8c-15.3-4.8-22.4-25.8-15.8-47.1s24.4-34.6,39.7-29.8
		C579.7,347.5,586.7,368.6,580.1,389.8z"/>
	<path class="st31" d="M540.2,362c1,3.6-1.2,7.3-4.8,8.3s-7.3-1.2-8.3-4.8s1.2-7.3,4.8-8.3C535.5,356.2,539.3,358.3,540.2,362z"/>
	<ellipse class="st9" cx="362" cy="428.2" rx="35.7" ry="15.2"/>
	<path class="st33" d="M720.3,437.1c7.8,5.4,32.5,25.3-7.8,34.9c-1.4,0.3-1.7,2.2-0.4,2.9c6.5,3.2,22.3,6.4,43.7-20.3
		c0.2-0.2,0.3-0.5,0.3-0.8c0.5-4.4,3.4-39.8-35.7-19.3C719.4,435,719.3,436.5,720.3,437.1z"/>
	<polygon class="st12" points="538.1,806.8 532.3,807.5 527.6,808.2 528.3,814.3 538.9,813 	"/>
	<path class="st34" d="M548.4,790.3"/>
	
		<ellipse transform="matrix(0.9929 -0.1189 0.1189 0.9929 -90.1985 71.7186)" class="st6" cx="555.9" cy="791.7" rx="7.3" ry="12.3"/>
	
		<ellipse transform="matrix(0.9929 -0.1189 0.1189 0.9929 -84.3449 69.9609)" class="st6" cx="544.1" cy="741.7" rx="7.3" ry="12.3"/>
	
		<ellipse transform="matrix(0.9786 -0.2057 0.2057 0.9786 -130.6221 124.4574)" class="st5" cx="533.2" cy="690.4" rx="4.7" ry="6.4"/>
	
		<ellipse transform="matrix(0.2505 -0.9681 0.9681 0.2505 -223.5498 969.2911)" class="st6" cx="514.2" cy="629" rx="4.6" ry="7.4"/>
</g>
<g id="Слой_2">
	<path class="st35" d="M709.3,1136.2c-6.9,12.8-12.6,23.1-14.2,25.9c-0.2,0.3-0.4,0.6-0.6,0.9c-5.1,7-16.2,4.2-18-4.2l-4.4-24.4
		C681.1,1129.5,695.8,1125.1,709.3,1136.2z"/>
	<path class="st36" d="M730,1098L730,1098c-6.6,12.2-14.1,26.2-20.6,38.1c-13.5-11.1-28.2-6.7-37.2-1.9l-7.4-49.3
		c35.8-0.1,43.5-13.5,45.6-22.8C711.5,1076.6,716.5,1090.6,730,1098z"/>
	<path class="st35" d="M741.5,1076.6c-2.9,5.4-7,13-11.5,21.4c-13.4-7.4-18.5-21.5-19.6-35.8c0.9-4.2,0.5-7.3,0.5-7.3l13.1-4.9
		c5.9,1.8,10.2,4.2,13.4,6.7C743.4,1061.4,745.1,1069.9,741.5,1076.6z"/>
	
		<rect x="668.8" y="1101" transform="matrix(0.9891 -0.1471 0.1471 0.9891 -156.2165 110.8838)" class="st35" width="5.3" height="21"/>
	<path class="st35" d="M953.5,900c4.7,14.6,8.4,26.3,9.3,29.6c0.1,0.4,0.2,0.8,0.3,1.1c1.6,8.9-8.9,15.3-16.8,10.5l-22.2-14.5
		C927.1,916.5,934.7,902.1,953.5,900z"/>
	<path class="st36" d="M940.6,858.1L940.6,858.1c4.5,13.9,9.7,29.9,14.1,43.4c-18.8,2.1-26.4,16.4-29.4,26.7l-43.7-29
		c26.8-27.1,22.2-44.2,16.6-52.5C910.1,856.4,924.8,862.9,940.6,858.1z"/>
	<path class="st35" d="M932.8,834.5c2,6.1,4.8,14.7,7.9,24.3c-15.8,4.7-30.5-1.8-42.5-11.4c-2.6-3.8-5.3-5.7-5.3-5.7
		s0.9-8.1,6.1-13.5s11-4.6,15.3-5.2C922.5,821.9,930.3,826.8,932.8,834.5z"/>
	<polygon class="st35" points="915.7,915.6 912.4,920.2 894,907.4 897.4,902.8 	"/>
</g>
<g id="Слой_5">
</g>
</svg>
